<svg width="495" height="496" viewBox="0 0 495 496" fill="none" xmlns="http://www.w3.org/2000/svg">
<path d="M401.952 432L383.432 376.432C376.96 357.032 360.448 342.712 340.32 339.048L286.856 329.32V325.176C296.16 319.776 304.256 312.552 310.704 304H326.856C340.088 304 350.856 293.232 350.856 280V184C350.856 126.656 304.2 80 246.856 80C189.512 80 142.856 126.656 142.856 184V240C142.856 255.424 153.824 268.328 168.368 271.336C172.856 294.328 187.224 313.784 206.856 325.176V329.32L153.384 339.048C133.264 342.712 116.744 357.032 110.28 376.432L107.08 386.04L79.832 358.792C76.712 355.672 76.712 350.592 79.832 347.472L111.432 315.88L52.12 256.568L16.408 292.28C5.832 302.856 0.00800323 316.92 0.00800323 331.88C0.00800323 346.84 5.832 360.896 16.408 371.472L124.528 479.592C135.104 490.168 149.168 496 164.128 496C179.088 496 193.144 490.168 203.472 479.832L242.44 444.128L230.288 432H401.952ZM334.856 280C334.856 284.416 331.264 288 326.856 288H320.128C322.448 282.712 324.208 277.136 325.344 271.336C328.768 270.624 331.92 269.264 334.856 267.552V280ZM326.856 253.776V226.224C331.616 229 334.856 234.104 334.856 240C334.856 245.896 331.616 251 326.856 253.776ZM166.856 253.776C162.096 251 158.856 245.896 158.856 240C158.856 234.104 162.096 229 166.856 226.224V253.776ZM166.856 200V209.136C164.008 209.88 161.336 211 158.856 212.448V184C158.856 135.48 198.336 96 246.856 96C295.376 96 334.856 135.48 334.856 184V212.448C332.376 211 329.704 209.872 326.856 209.136V200H318.856C295.2 200 272.96 190.784 256.224 174.056L246.856 164.688L237.488 174.056C220.752 190.784 198.512 200 174.856 200H166.856ZM182.856 256V215.696C206.88 213.888 229.28 203.976 246.856 187.264C264.432 203.976 286.832 213.896 310.856 215.696V256C310.856 267.664 307.672 278.576 302.2 288H246.856V304H289.048C277.768 313.928 263.024 320 246.856 320C211.568 320 182.856 291.288 182.856 256ZM270.856 332.312V332.688L246.856 356.688L222.856 332.688V332.312C230.44 334.696 238.496 336 246.856 336C255.216 336 263.272 334.696 270.856 332.312ZM125.448 381.488C130.064 367.632 141.864 357.4 156.24 354.776L212.16 344.616L246.856 379.312L281.544 344.624L337.456 354.784C351.832 357.408 363.632 367.632 368.248 381.496L379.76 416H214.288L183.128 384.84L148.504 416.16C145.488 419.192 140.216 419.192 137.192 416.16L119.72 398.688L125.448 381.488ZM52.112 279.192L88.8 315.88L80.112 324.568L43.424 287.88L52.112 279.192ZM192.392 468.296C184.84 475.832 174.792 480 164.112 480C153.432 480 143.384 475.832 135.824 468.28L27.704 360.168C20.152 352.616 15.992 342.568 15.992 331.888C15.992 321.2 20.152 311.152 27.704 303.6L32.104 299.2L68.792 335.888L68.504 336.176C59.152 345.536 59.152 360.76 68.504 370.12L125.872 427.488C130.408 432.016 136.432 434.52 142.848 434.52C149.264 434.52 155.288 432.024 159.528 427.768L160.128 427.232L196.984 464.088L192.392 468.296ZM208.792 453.256L172.016 416.48L182.584 406.928L219.296 443.64L208.792 453.256Z" fill="#00838C"/>
<path d="M470.856 0H358.856C345.624 0 334.856 10.768 334.856 24V88C334.856 101.232 345.624 112 358.856 112H380.224L371.952 160.248L449.152 112H470.856C484.088 112 494.856 101.232 494.856 88V24C494.856 10.768 484.088 0 470.856 0ZM478.856 88C478.856 92.408 475.264 96 470.856 96H444.56L393.752 127.752L399.2 96H358.856C354.448 96 350.856 92.408 350.856 88V24C350.856 19.592 354.448 16 358.856 16H470.856C475.264 16 478.856 19.592 478.856 24V88Z" fill="#00838C"/>
<path d="M462.856 32H366.856V48H462.856V32Z" fill="#00838C"/>
<path d="M430.856 64H366.856V80H430.856V64Z" fill="#00838C"/>
<path d="M462.856 64H446.856V80H462.856V64Z" fill="#00838C"/>
<path d="M246.856 24C142.328 24 52.288 96.304 28.88 197.16L13.72 171.888L0 180.12L28.12 226.976L74.976 198.856L66.744 185.136L45.064 198.144C67.736 105.88 150.704 40 246.856 40C267.872 40 288.608 43.12 308.488 49.28L313.224 34C291.808 27.36 269.48 24 246.856 24Z" fill="#00838C"/>
<path d="M490.968 177.136L444.112 149.016L416 195.88L429.72 204.112L443.72 180.776C451.088 202.336 454.856 224.888 454.856 248C454.856 295.576 438.376 342.088 408.464 378.96L420.888 389.04C453.112 349.328 470.856 299.232 470.856 248C470.856 223.528 466.912 199.632 459.224 176.752L482.736 190.856L490.968 177.136Z" fill="#00838C"/>
</svg>
