<svg width="512" height="272" viewBox="0 0 512 272" fill="none" xmlns="http://www.w3.org/2000/svg">
<path d="M95.758 224.447H95.677C91.535 224.447 88.218 227.805 88.218 231.947C88.218 236.089 91.616 239.447 95.758 239.447C99.9 239.447 103.258 236.089 103.258 231.947C103.258 227.805 99.9 224.447 95.758 224.447Z" fill="#00838C"/>
<path d="M159.887 224.447H159.807C155.665 224.447 152.347 227.805 152.347 231.947C152.347 236.089 155.745 239.447 159.887 239.447C164.029 239.447 167.387 236.089 167.387 231.947C167.387 227.805 164.029 224.447 159.887 224.447Z" fill="#00838C"/>
<path d="M424.419 224.447H424.339C420.197 224.447 416.879 227.805 416.879 231.947C416.879 236.089 420.277 239.447 424.419 239.447C428.561 239.447 431.919 236.089 431.919 231.947C431.919 227.805 428.561 224.447 424.419 224.447Z" fill="#00838C"/>
<path d="M505.107 133.771L495.023 123.687L474.708 62.741C477.739 61.778 479.936 58.943 479.936 55.594C479.936 51.452 476.578 48.094 472.436 48.094H399.775V15.516C399.775 6.96 392.815 0 384.259 0H15.516C6.96 0 0 6.961 0 15.516V191.87C0 200.426 6.96 207.386 15.516 207.386H24.048V223.93C24.048 232.486 31.008 239.446 39.564 239.446H56.835C60.351 257.686 76.426 271.51 95.677 271.51C108.859 271.51 120.548 265.024 127.741 255.082C134.935 265.024 146.624 271.51 159.806 271.51C179.057 271.51 195.133 257.686 198.648 239.446H385.496C389.012 257.686 405.087 271.51 424.338 271.51C446.154 271.51 463.902 253.761 463.902 231.946C463.902 231.774 463.891 231.605 463.889 231.434H496.483C505.039 231.434 511.999 224.474 511.999 215.918V150.41C512 144.125 509.552 138.216 505.107 133.771ZM56.835 224.447H39.564C39.279 224.447 39.048 224.216 39.048 223.931V207.387H64.693C60.813 212.273 58.06 218.089 56.835 224.447ZM95.677 256.512C82.132 256.512 71.113 245.492 71.113 231.948C71.113 218.455 82.05 207.471 95.524 207.387H95.832C109.306 207.47 120.243 218.454 120.243 231.948C120.242 245.492 109.222 256.512 95.677 256.512ZM159.807 256.512C146.262 256.512 135.242 245.492 135.242 231.948C135.242 218.455 146.179 207.471 159.653 207.387H159.961C173.435 207.47 184.372 218.454 184.372 231.948C184.371 245.492 173.352 256.512 159.807 256.512ZM385.497 224.447H198.649C197.424 218.089 194.671 212.272 190.79 207.386H336.161C340.303 207.386 343.661 204.028 343.661 199.886C343.661 195.744 340.303 192.386 336.161 192.386H15.516C15.231 192.386 15 192.155 15 191.87V15.516C15 15.231 15.231 15 15.516 15H384.258C384.543 15 384.774 15.231 384.774 15.516V192.387H368.229C364.087 192.387 360.729 195.745 360.729 199.887C360.729 204.029 364.087 207.387 368.229 207.387H393.355C389.474 212.273 386.722 218.089 385.497 224.447ZM480.734 128.254H432.355C432.07 128.254 431.839 128.023 431.839 127.738V95.157H469.702L480.734 128.254ZM424.339 256.512C410.794 256.512 399.775 245.492 399.775 231.948C399.775 218.455 410.712 207.471 424.186 207.387H424.34C424.357 207.387 424.374 207.385 424.392 207.384C437.913 207.412 448.905 218.42 448.905 231.947C448.903 245.492 437.884 256.512 424.339 256.512ZM497 215.92C497 216.205 496.769 216.436 496.484 216.436H460.732C454.687 202.309 440.652 192.384 424.339 192.384C424.287 192.384 424.237 192.388 424.185 192.388H399.775V63.613V63.609C399.775 63.324 400.006 63.093 400.291 63.093H459.014L464.702 80.157H424.339C420.197 80.157 416.839 83.515 416.839 87.657V127.738C416.839 136.294 423.799 143.254 432.355 143.254H493.377L494.501 144.378C496.112 145.99 497 148.132 497 150.411V168.339H488.468C484.326 168.339 480.968 171.697 480.968 175.839C480.968 179.981 484.326 183.339 488.468 183.339H497V215.92Z" fill="#00838C"/>
<path d="M360.209 160.322H39.564C35.422 160.322 32.064 163.68 32.064 167.822C32.064 171.964 35.422 175.322 39.564 175.322H360.209C364.351 175.322 367.709 171.964 367.709 167.822C367.709 163.68 364.351 160.322 360.209 160.322Z" fill="#00838C"/>
<path d="M135.5 99.63L141.625 67.255H150.969L140.875 112.755H131.438L124.031 82.3175L116.625 112.755H107.188L97.0938 67.255H106.438L112.594 99.5675L120.094 67.255H128.031L135.5 99.63ZM151.438 108.318C151.438 106.88 151.917 105.713 152.875 104.818C153.854 103.922 155.073 103.474 156.531 103.474C158.01 103.474 159.229 103.922 160.188 104.818C161.167 105.713 161.656 106.88 161.656 108.318C161.656 109.734 161.177 110.89 160.219 111.786C159.26 112.661 158.031 113.099 156.531 113.099C155.052 113.099 153.833 112.661 152.875 111.786C151.917 110.89 151.438 109.734 151.438 108.318ZM205.625 99.63L211.75 67.255H221.094L211 112.755H201.562L194.156 82.3175L186.75 112.755H177.312L167.219 67.255H176.562L182.719 99.5675L190.219 67.255H198.156L205.625 99.63ZM221.562 108.318C221.562 106.88 222.042 105.713 223 104.818C223.979 103.922 225.198 103.474 226.656 103.474C228.135 103.474 229.354 103.922 230.312 104.818C231.292 105.713 231.781 106.88 231.781 108.318C231.781 109.734 231.302 110.89 230.344 111.786C229.385 112.661 228.156 113.099 226.656 113.099C225.177 113.099 223.958 112.661 223 111.786C222.042 110.89 221.562 109.734 221.562 108.318ZM275.75 99.63L281.875 67.255H291.219L281.125 112.755H271.688L264.281 82.3175L256.875 112.755H247.438L237.344 67.255H246.688L252.844 99.5675L260.344 67.255H268.281L275.75 99.63Z" fill="#00838C"/>
</svg>
