<svg width="512" height="512" viewBox="0 0 512 512" fill="none" xmlns="http://www.w3.org/2000/svg">
<path d="M482.145 2.18201H29.855C13.392 2.18201 0 15.575 0 32.037V186.215C0 190.408 3.397 193.805 7.59 193.805C11.783 193.805 15.18 190.408 15.18 186.215V167.937H496.819V479.962C496.819 488.053 490.236 494.637 482.144 494.637H29.855C21.764 494.637 15.18 488.054 15.18 479.962V223.999C15.18 219.806 11.783 216.409 7.59 216.409C3.397 216.409 0 219.806 0 223.999V479.963C0 496.426 13.392 509.818 29.855 509.818H482.145C498.608 509.818 512 496.426 512 479.963V160.346V95.701V32.037C512 15.575 498.608 2.18201 482.145 2.18201ZM496.819 152.756H15.731V103.292H496.819V152.756ZM496.819 88.111H15.181V32.037C15.181 23.946 21.764 17.363 29.856 17.363H482.146C490.237 17.363 496.821 23.946 496.821 32.037V88.111H496.819Z" fill="#00838C"/>
<path d="M454.223 29.967C441.784 29.967 431.664 40.087 431.664 52.526C431.664 64.965 441.784 75.085 454.223 75.085C466.662 75.085 476.782 64.965 476.782 52.526C476.782 40.087 466.662 29.967 454.223 29.967ZM454.223 59.906C450.155 59.906 446.844 56.596 446.844 52.527C446.844 48.459 450.154 45.148 454.223 45.148C458.292 45.148 461.602 48.458 461.602 52.527C461.602 56.595 458.291 59.906 454.223 59.906Z" fill="#00838C"/>
<path d="M393.091 29.967C380.652 29.967 370.532 40.087 370.532 52.526C370.532 64.965 380.652 75.085 393.091 75.085C405.53 75.085 415.65 64.965 415.65 52.526C415.65 40.087 405.53 29.967 393.091 29.967ZM393.091 59.906C389.023 59.906 385.712 56.596 385.712 52.527C385.712 48.459 389.022 45.148 393.091 45.148C397.16 45.148 400.47 48.458 400.47 52.527C400.469 56.595 397.159 59.906 393.091 59.906Z" fill="#00838C"/>
<path d="M331.957 29.967C319.518 29.967 309.398 40.087 309.398 52.526C309.398 64.965 319.518 75.085 331.957 75.085C344.396 75.085 354.516 64.965 354.516 52.526C354.516 40.087 344.396 29.967 331.957 29.967ZM331.958 59.906C327.89 59.906 324.579 56.596 324.579 52.527C324.579 48.459 327.888 45.148 331.958 45.148C336.028 45.148 339.337 48.458 339.337 52.527C339.336 56.595 336.026 59.906 331.958 59.906Z" fill="#00838C"/>
<path d="M258.605 29.967H65.708C53.269 29.967 43.149 40.087 43.149 52.526C43.149 64.965 53.269 75.085 65.708 75.085H258.605C271.044 75.085 281.164 64.965 281.164 52.526C281.164 40.087 271.044 29.967 258.605 29.967ZM258.605 59.906H65.708C61.639 59.906 58.329 56.596 58.329 52.527C58.329 48.459 61.638 45.148 65.708 45.148H258.605C262.674 45.148 265.984 48.458 265.984 52.527C265.984 56.595 262.673 59.906 258.605 59.906Z" fill="#00838C"/>
<path d="M188.84 264.987C183.504 264.987 179.535 269.228 179.535 274.292C179.535 279.221 183.503 283.599 188.84 283.599C193.768 283.599 198.011 279.221 198.011 274.292C198.011 269.228 193.768 264.987 188.84 264.987Z" fill="#00838C"/>
<path d="M251.245 264.439C247.824 264.439 245.772 268.545 237.56 268.545C228.116 268.545 224.147 263.892 224.147 255.953V245.004C224.148 237.068 228.116 232.414 237.423 232.414C245.497 232.414 247.96 236.245 250.972 236.245C255.213 236.245 257.951 230.909 257.951 227.623C257.951 222.286 248.92 216.949 236.055 216.949C215.389 216.949 206.493 229.266 206.493 245.004V255.953C206.493 271.965 215.524 284.01 236.19 284.01C249.055 284.01 258.773 278.262 258.773 272.786C258.774 269.366 256.036 264.439 251.245 264.439Z" fill="#00838C"/>
<path d="M294.76 216.949C278.472 216.949 265.063 229.951 265.063 244.731V255.952C265.063 270.732 278.748 284.009 294.76 284.009C310.635 284.009 324.457 270.596 324.457 255.952V244.731C324.458 229.539 310.636 216.949 294.76 216.949ZM306.803 255.953C306.803 262.387 301.329 268.545 294.761 268.545C288.055 268.545 282.717 262.387 282.717 255.953V244.732C282.717 238.574 288.056 232.414 294.761 232.414C301.329 232.414 306.803 238.572 306.803 244.732V255.953Z" fill="#00838C"/>
<path d="M408.071 216.949C400.135 216.949 392.196 221.327 387.405 230.634C384.532 222.56 378.098 216.949 370.3 216.949C361.267 216.949 355.245 222.012 352.234 227.351V223.245C352.233 219.961 348.673 217.771 344.432 217.771C339.231 217.771 335.673 219.961 335.673 223.246V277.167C335.673 279.905 339.231 282.778 344.432 282.778C349.221 282.778 353.327 279.905 353.327 277.167V244.732C353.327 236.658 358.666 232.414 364.003 232.414C369.751 232.414 375.225 237.067 375.225 244.732V277.304C375.225 281.136 379.878 282.778 383.984 282.778C388.362 282.778 392.88 281.135 392.88 277.304V244.594C392.88 236.658 398.216 232.276 403.692 232.276C409.165 232.276 414.777 236.519 414.777 244.73V277.165C414.777 279.903 418.883 282.776 423.536 282.776C428.327 282.776 432.433 279.903 432.433 277.165V244.73C432.433 226.938 420.526 216.949 408.071 216.949Z" fill="#00838C"/>
<path d="M188.84 419.083C183.504 419.083 179.535 423.324 179.535 428.388C179.535 433.317 183.503 437.695 188.84 437.695C193.768 437.695 198.011 433.317 198.011 428.388C198.011 423.324 193.768 419.083 188.84 419.083Z" fill="#00838C"/>
<path d="M243.582 371.045C234.413 371.045 227.844 376.108 225.244 381.447V377.341C225.244 374.056 221.684 371.866 217.443 371.866C212.242 371.866 208.684 374.056 208.684 377.341V431.262C208.684 434 212.242 436.873 217.443 436.873C222.232 436.873 226.338 434 226.338 431.262V398.827C226.338 391.163 231.951 386.509 237.562 386.509C244.131 386.509 249.469 392.667 249.469 398.827V431.262C249.469 434.958 254.122 436.873 258.228 436.873C262.606 436.873 267.123 434.957 267.123 431.262V398.827C267.121 383.636 256.174 371.045 243.582 371.045Z" fill="#00838C"/>
<path d="M328.289 418.946C324.183 418.946 320.489 424.147 311.456 424.147C301.877 424.147 295.444 418.946 295.444 411.008V408.956H323.226C329.384 408.956 335.955 408.409 335.955 396.776C335.955 381.583 322.816 371.046 307.761 371.046C291.065 371.046 277.789 383.636 277.789 398.418V410.05C277.789 426.883 291.476 438.107 310.909 438.107C325.553 438.107 334.995 431.401 334.995 426.748C334.995 424.009 332.396 418.946 328.289 418.946ZM295.443 394.723C295.443 388.154 301.191 384.048 307.35 384.048C313.918 384.048 319.394 388.427 319.394 394.86C319.394 397.871 318.299 398.554 315.424 398.554H295.443V394.723V394.723Z" fill="#00838C"/>
<path d="M377.003 421.956H371.667C365.919 421.956 364.003 420.04 364.003 414.703V384.73H380.152V384.731C383.027 384.731 384.67 381.583 384.67 378.299C384.67 375.152 383.027 371.866 380.152 371.866H364.004V348.327C364.004 345.042 359.624 342.852 355.107 342.852C351.001 342.852 346.348 345.042 346.348 348.327V414.702C346.348 430.167 355.244 436.873 371.667 436.873H377.003C382.068 436.873 384.532 433.177 384.532 429.346C384.532 425.651 382.069 421.956 377.003 421.956Z" fill="#00838C"/>
<path d="M133.629 207.911H64.903C60.71 207.911 57.313 211.308 57.313 215.501V284.227C57.313 288.419 60.71 291.817 64.903 291.817H133.629C137.822 291.817 141.219 288.42 141.219 284.227V215.501C141.22 211.308 137.822 207.911 133.629 207.911ZM126.039 276.637H72.493V223.091H126.039V276.637V276.637Z" fill="#00838C"/>
<path d="M133.629 359.717H64.903C60.71 359.717 57.313 363.114 57.313 367.307V436.033C57.313 440.226 60.71 443.623 64.903 443.623H133.629C137.822 443.623 141.219 440.226 141.219 436.033V367.307C141.22 363.114 137.822 359.717 133.629 359.717ZM126.039 428.443H72.493V374.897H126.039V428.443V428.443Z" fill="#00838C"/>
</svg>
