<svg width="512" height="512" viewBox="0 0 512 512" fill="none" xmlns="http://www.w3.org/2000/svg">
<rect width="690" height="789" transform="translate(-89 -99)" fill="white"/>
<path d="M504 8H104V244.376C93.752 262.2 88 282.656 88 304C88 323.328 92.696 341.536 100.848 357.728L24.384 422.432C13.968 431.232 8 444.104 8 457.744C8 483.248 28.752 504 54.256 504C67.896 504 80.76 498.032 89.568 487.616L154.272 411.152C170.464 419.304 188.672 424 208 424C239.384 424 267.904 411.792 289.312 392H504V8ZM488 24V72H120V24H488ZM77.352 477.288C71.592 484.096 63.176 488 54.256 488C37.568 488 24 474.432 24 457.744C24 448.824 27.904 440.408 34.712 434.648L109.048 371.752C117.44 383.976 128.032 394.568 140.256 402.96L77.352 477.288ZM208 408C150.656 408 104 361.344 104 304C104 266.152 124.736 231.464 157.48 213.208C159.416 218.152 161.856 222.896 164.776 227.392C137.304 242.872 120 271.928 120 304C120 352.52 159.48 392 208 392C256.52 392 296 352.52 296 304C296 284.128 289.368 265.224 277.232 249.784C281.616 246.768 285.616 243.248 289.328 239.408C303.976 257.792 312 280.4 312 304C312 361.344 265.344 408 208 408V408ZM392 184V200H376V184H328V200H294.16L292.28 205.328C283.232 230.848 259.016 248 232 248C214.56 248 198.256 241.112 186.104 228.6C173.952 216.088 167.536 199.584 168.032 182.112C168.976 148.912 196.76 121.064 229.952 120.032V120.024C230.632 120.016 231.312 120 231.984 120C259.104 120 283.16 136.936 292.272 162.672L294.16 168H448C452.416 168 456 171.584 456 176V192C456 196.416 452.416 200 448 200H440V184H392ZM175.072 240.168C190.224 255.528 210.408 264 232 264C242.864 264 253.296 261.632 262.92 257.568C273.936 270.568 280 286.832 280 304C280 343.704 247.704 376 208 376C168.296 376 136 343.704 136 304C136 276.856 151.232 252.464 175.072 240.168ZM303.776 376C318.912 355.92 328 331.032 328 304C328 275.56 317.856 248.416 299.512 226.744C301.672 223.336 303.608 219.76 305.256 216H344V200H360V216H408V200H424V216H448C461.232 216 472 205.232 472 192V176C472 162.768 461.232 152 448 152H305.256C292.232 122.088 262.496 103.2 229.448 104.04C187.944 105.336 153.216 140.16 152.024 181.664C151.872 187.008 152.256 192.28 153.12 197.424C140.504 203.928 129.36 212.512 119.992 222.648V88H487.992V376H303.776Z" fill="#00838C"/>
<path d="M136 40H152V56H136V40Z" fill="#00838C"/>
<path d="M168 40H184V56H168V40Z" fill="#00838C"/>
<path d="M200 40H216V56H200V40Z" fill="#00838C"/>
<path d="M216 152C198.352 152 184 166.352 184 184C184 201.648 198.352 216 216 216C233.648 216 248 201.648 248 184C248 166.352 233.648 152 216 152ZM216 200C207.176 200 200 192.824 200 184C200 175.176 207.176 168 216 168C224.824 168 232 175.176 232 184C232 192.824 224.824 200 216 200Z" fill="#00838C"/>
<path d="M392 344H408V360H392V344Z" fill="#00838C"/>
<path d="M456 344H472V360H456V344Z" fill="#00838C"/>
<path d="M424 344H440V360H424V344Z" fill="#00838C"/>
<path d="M360 312H472V328H360V312Z" fill="#00838C"/>
<path d="M360 280H472V296H360V280Z" fill="#00838C"/>
<path d="M360 248H472V264H360V248Z" fill="#00838C"/>
<path d="M208 360V344C185.944 344 168 326.056 168 304H152C152 334.872 177.128 360 208 360Z" fill="#00838C"/>
<path d="M50.2964 450.305L61.0388 439.563L72.3525 450.877L61.6102 461.619L50.2964 450.305Z" fill="#00838C"/>
<path d="M72.352 428.244L83.6657 416.93L94.9794 428.244L83.6657 439.558L72.352 428.244Z" fill="#00838C"/>
<path d="M94.976 405.622L106.29 394.308L117.603 405.622L106.29 416.935L94.976 405.622Z" fill="#00838C"/>
</svg>
