<svg width="496" height="496" viewBox="0 0 496 496" fill="none" xmlns="http://www.w3.org/2000/svg">
<path d="M288 264V256H304V240H288V231.855C288 229.391 289.168 227.047 291.105 225.602C302.77 216.871 311.238 205.199 315.895 192H360C390.879 192 416 166.871 416 136C416 107.727 394.945 84.2813 367.68 80.5195C363.879 35.4883 326.008 0 280 0C254.121 0 230.879 11.3047 214.77 29.1445C203.672 20.6562 190.207 16 176 16C140.711 16 112 44.7109 112 80C112 81.793 112.105 83.5742 112.246 85.3594C93.2227 94.3203 80 113.625 80 136C80 166.871 105.121 192 136 192H180.32C184.984 205.137 193.289 216.902 204.855 225.566C206.824 227.047 208 229.398 208 231.855V240H192V256H208V264C208 277.23 218.77 288 232 288H264C277.23 288 288 277.23 288 264ZM176.895 156.512C175.871 163.062 175.777 169.609 176.504 176H136C113.945 176 96 158.055 96 136C96 113.945 113.945 96 136 96C143.039 96 149.953 97.8477 155.992 101.344L164.008 87.5039C155.535 82.5938 145.848 80 136 80C133.297 80 130.664 80.2578 128.055 80.6328C128.055 80.4141 128 80.207 128 80C128 53.5273 149.527 32 176 32C186.695 32 196.832 35.5195 205.168 41.9297C196.871 55.3516 192 71.0977 192 88H208C208 48.2969 240.305 16 280 16C319.695 16 352 48.2969 352 88V96H360C382.055 96 400 113.945 400 136C400 158.055 382.055 176 360 176H319.535C319.832 173.359 320 170.695 320 168C320 147.551 311.258 128 296.016 114.352C280.785 100.711 260.312 94.1836 239.816 96.457C208.223 99.9531 181.77 125.207 176.895 156.512V156.512ZM272 264C272 268.414 268.406 272 264 272H232C227.594 272 224 268.414 224 264V256H272V264ZM240 168C240 163.586 243.594 160 248 160C252.406 160 256 163.586 256 168C256 172.414 252.406 176 248 176C243.594 176 240 172.414 240 168ZM272 231.855V240H256V190.527C265.289 187.215 272 178.414 272 168C272 154.77 261.23 144 248 144C234.77 144 224 154.77 224 168C224 178.414 230.711 187.215 240 190.527V240H224V231.855C224 224.383 220.434 217.258 214.457 212.77C197.816 200.289 189.48 179.68 192.711 158.961C196.488 134.672 217.047 115.07 241.574 112.352C243.754 112.121 245.922 112 248.062 112C261.895 112 274.938 116.953 285.344 126.266C297.199 136.879 304 152.098 304 168C304 185.777 295.809 202.098 281.504 212.801C275.551 217.266 272 224.391 272 231.855Z" fill="#00838C"/>
<path d="M196.656 401.121L152 386.23V375.113C156.367 370.648 159.961 365.441 162.648 359.727C179.039 358.359 192 344.742 192 328V273.297C192 255.176 180.727 239.098 163.816 232.855L150.398 222.809C137.672 213.258 121.902 208 106 208C65.1914 208 32 241.191 32 282V328C32 344.742 44.9609 358.359 61.3516 359.727C64.0391 365.441 67.6328 370.648 72 375.113V386.23L27.3438 401.113C10.9922 406.566 0 421.824 0 439.062V496H224V439.062C224 421.824 213.008 406.566 196.656 401.121V401.121ZM156.719 404.672L141.137 435.855L124.184 423.137L146.168 401.152L156.719 404.672ZM112 412.688L88 388.688V386.52C95.2891 389.992 103.398 392 112 392C120.602 392 128.711 389.992 136 386.52V388.688L112 412.688ZM152 336C152 358.055 134.055 376 112 376C89.9453 376 72 358.055 72 336V304C72 299.586 75.5938 296 80 296H144C148.406 296 152 299.586 152 304V336ZM167.672 341.953C167.879 339.992 168 338.008 168 336V314.223C172.762 317 176 322.105 176 328C176 334.023 172.609 339.223 167.672 341.953ZM48 328C48 322.105 51.2383 317 56 314.223V336C56 338.008 56.1211 339.992 56.3281 341.953C51.3906 339.223 48 334.023 48 328ZM57.2383 296.754C53.9219 297.473 50.8477 298.793 48 300.449V282C48 250.016 74.0156 224 106 224C118.465 224 130.824 228.121 140.801 235.602L156.238 247.176L157.473 247.586C168.551 251.289 176 261.617 176 273.297V300.449C173.152 298.785 170.078 297.465 166.762 296.742C163.664 287.07 154.688 280 144 280H80C69.3125 280 60.3359 287.07 57.2383 296.754ZM77.8398 401.152L99.8242 423.137L82.8711 435.855L67.2812 404.672L77.8398 401.152ZM208 480H176V448H160V480H64V448H48V480H16V439.062C16 428.719 22.5938 419.566 32.4062 416.289L51.9453 409.777L77.1289 460.145L112 434L146.863 460.145L172.047 409.777L191.586 416.289C201.406 419.566 208 428.719 208 439.062V480Z" fill="#00838C"/>
<path d="M468.656 401.121L424 386.23V375.113C428.367 370.648 431.961 365.441 434.648 359.727C451.039 358.359 464 344.742 464 328V282C464 241.191 430.809 208 390 208C374.098 208 358.328 213.258 345.602 222.809L332.184 232.863C315.273 239.098 304 255.176 304 273.297V328C304 344.742 316.961 358.359 333.352 359.727C336.039 365.441 339.633 370.648 344 375.113V386.23L299.344 401.113C282.992 406.566 272 421.824 272 439.062V496H496V439.062C496 421.824 485.008 406.566 468.656 401.121V401.121ZM428.719 404.672L413.137 435.855L396.184 423.137L418.168 401.152L428.719 404.672ZM424 336C424 358.055 406.055 376 384 376C361.945 376 344 358.055 344 336V295.633C358.266 294.336 371.953 289.551 384 281.609C396.047 289.551 409.734 294.336 424 295.633V336ZM439.672 341.953C439.879 339.992 440 338.008 440 336V314.223C444.762 317 448 322.105 448 328C448 334.023 444.609 339.223 439.672 341.953ZM320 328C320 322.105 323.238 317 328 314.223V336C328 338.008 328.121 339.992 328.328 341.953C323.391 339.223 320 334.023 320 328ZM336 280H328V297.137C325.152 297.879 322.48 299 320 300.449V273.297C320 261.617 327.449 251.289 338.527 247.586L339.762 247.176L355.199 235.602C365.176 228.113 377.535 224 390 224C421.984 224 448 250.016 448 282V300.449C445.52 299 442.848 297.871 440 297.137V280H432C417.879 280 404.215 275.855 392.473 268.031L384 262.383L375.527 268.031C363.785 275.855 350.121 280 336 280ZM349.84 401.152L371.824 423.137L354.871 435.855L339.289 404.672L349.84 401.152ZM376 480H336V448H320V480H288V439.062C288 428.719 294.594 419.566 304.406 416.289L323.945 409.777L349.129 460.145L376 440V480ZM360 388.688V386.52C367.289 389.992 375.398 392 384 392C392.602 392 400.711 389.992 408 386.52V388.688L384 412.688L360 388.688ZM480 480H448V448H432V480H392V440L418.863 460.145L444.047 409.777L463.586 416.289C473.406 419.566 480 428.719 480 439.062V480Z" fill="#00838C"/>
</svg>
