<svg width="512" height="225" viewBox="0 0 512 225" fill="none" xmlns="http://www.w3.org/2000/svg">
<path d="M399.673 216.817H112.327C54.619 216.817 7.83701 170.036 7.83701 112.327C7.83701 54.619 54.618 7.83701 112.327 7.83701H399.674C457.382 7.83701 504.164 54.618 504.164 112.327C504.163 170.036 457.381 216.817 399.673 216.817Z" fill="#FF8564"/>
<path d="M127.478 187.56C169.028 187.56 202.711 153.877 202.711 112.327C202.711 70.777 169.028 37.094 127.478 37.094C85.928 37.094 52.245 70.777 52.245 112.327C52.245 153.877 85.928 187.56 127.478 187.56Z" fill="white"/>
<path d="M44.408 112.327C44.408 158.132 81.673 195.396 127.477 195.396C173.281 195.396 210.546 158.132 210.546 112.327C210.546 66.522 173.281 29.258 127.477 29.258C81.673 29.258 44.408 66.522 44.408 112.327ZM194.873 112.327C194.873 149.489 164.639 179.723 127.477 179.723C90.315 179.723 60.082 149.489 60.082 112.327C60.082 75.164 90.316 44.931 127.478 44.931C164.64 44.931 194.873 75.164 194.873 112.327Z" fill="#00838C"/>
<path d="M362.057 0H346.384V15.673H362.057V0Z" fill="#00838C"/>
<path d="M15.673 112.327C15.673 59.032 59.031 15.674 112.326 15.674H328.097V0.00100709H112.327C50.389 7.09491e-06 0 50.391 0 112.328C0 174.264 50.389 224.653 112.327 224.653H130.613V208.98H112.327C59.032 208.98 15.673 165.622 15.673 112.327Z" fill="#00838C"/>
<path d="M399.673 0H380.865V15.673H399.673C452.968 15.673 496.326 59.032 496.326 112.327C496.326 165.621 452.968 208.979 399.673 208.979H183.38V224.652H399.674C461.611 224.654 512 174.263 512 112.327C512 50.391 461.611 0 399.673 0Z" fill="#00838C"/>
<path d="M164.571 208.98H148.898V224.653H164.571V208.98Z" fill="#00838C"/>
</svg>
