<svg width="512" height="512" viewBox="0 0 512 512" fill="none" xmlns="http://www.w3.org/2000/svg">
<g clip-path="url(#clip0)">
<path d="M456.653 55.176C434.749 33.272 405.63 21.207 374.659 21.207C343.689 21.207 314.577 33.272 292.681 55.176L224.825 123.02C214.729 133.118 206.686 144.788 200.927 157.704C200.024 159.719 200.93 162.085 202.949 162.983C204.967 163.901 207.33 162.976 208.227 160.961C213.588 148.943 221.077 138.08 230.479 128.675L298.334 60.831C318.722 40.438 345.828 29.205 374.658 29.205C403.497 29.205 430.602 40.438 450.998 60.831C471.387 81.22 482.617 108.328 482.609 137.167C482.609 165.997 471.38 193.106 450.99 213.495L383.146 281.335C362.749 301.724 335.645 312.953 306.806 312.953C277.976 312.953 250.867 301.724 230.478 281.335C219.042 269.903 210.507 256.436 205.111 241.302C204.369 239.225 202.077 238.143 200 238.877C197.919 239.619 196.838 241.907 197.575 243.988C203.374 260.251 212.541 274.713 224.824 286.989C246.72 308.892 275.836 320.95 306.806 320.95C337.777 320.95 366.896 308.892 388.801 286.989L456.645 219.148C501.851 173.938 501.859 100.382 456.653 55.176Z" fill="#00838C"/>
<path d="M439.691 230.455C438.129 228.893 435.599 228.893 434.037 230.455L366.185 298.303C345.788 318.692 318.683 329.921 289.845 329.921C261.011 329.921 233.906 318.692 213.517 298.303C200.117 284.903 190.45 268.184 185.565 249.966C184.991 247.834 182.813 246.577 180.669 247.139C178.537 247.709 177.269 249.903 177.842 252.035C183.09 271.612 193.471 289.564 207.863 303.957C229.759 325.86 258.875 337.918 289.845 337.918C320.816 337.918 349.935 325.861 371.839 303.957L439.691 236.108C441.253 234.547 441.253 232.017 439.691 230.455Z" fill="#00838C"/>
<path d="M434.037 77.791C401.295 45.06 348.023 45.052 315.295 77.791L247.44 145.635C243.477 149.598 239.884 153.994 236.761 158.699C235.538 160.539 236.042 163.018 237.881 164.24C239.716 165.466 242.199 164.954 243.422 163.119C246.252 158.859 249.505 154.876 253.093 151.288L320.949 83.444C350.553 53.825 398.749 53.825 428.384 83.444C442.728 97.789 450.624 116.866 450.624 137.158C450.624 157.449 442.721 176.526 428.376 190.871L360.524 258.724C346.179 273.064 327.102 280.959 306.814 280.959C286.519 280.959 267.441 273.065 253.092 258.724C251.237 256.866 249.496 254.944 247.872 252.953C246.481 251.246 243.956 250.981 242.245 252.387C240.535 253.784 240.282 256.303 241.68 258.013C243.476 260.207 245.389 262.331 247.439 264.373C263.806 280.74 285.308 288.924 306.806 288.924C328.312 288.924 349.81 280.741 366.177 264.374L434.029 196.526C449.89 180.674 458.62 159.59 458.62 137.159C458.62 114.731 449.89 93.647 434.037 77.791Z" fill="#00838C"/>
<path d="M417.068 94.751C384.334 62.02 331.069 62.02 298.334 94.751C296.772 96.313 296.772 98.843 298.334 100.405C299.896 101.967 302.426 101.967 303.988 100.405C333.607 70.794 381.796 70.786 411.415 100.405C441.026 130.02 441.026 178.217 411.415 207.84C409.853 209.402 409.853 211.932 411.415 213.494C412.196 214.275 413.219 214.665 414.242 214.665C415.264 214.665 416.287 214.275 417.068 213.494C449.803 180.751 449.803 127.486 417.068 94.751Z" fill="#00838C"/>
<path d="M333.999 259.766C328.774 240.212 318.396 222.255 303.989 207.832C258.767 162.627 185.206 162.619 140.012 207.84L72.16 275.681C50.26 297.584 38.199 326.696 38.199 357.666C38.199 388.637 50.26 417.749 72.16 439.645C94.056 461.55 123.171 473.614 154.142 473.614C154.146 473.614 154.146 473.614 154.146 473.614C185.116 473.614 214.231 461.557 236.133 439.653L303.989 371.809C309.9 365.897 315.179 359.346 319.669 352.341C320.856 350.482 320.317 348.014 318.459 346.82C316.601 345.617 314.126 346.164 312.938 348.03C308.752 354.543 303.841 360.641 298.335 366.154L230.48 433.998C210.086 454.388 182.978 465.617 154.144 465.617C125.309 465.617 98.205 454.387 77.815 433.99C57.426 413.602 46.197 386.497 46.197 357.666C46.197 328.836 57.426 301.723 77.815 281.334L145.668 213.494C187.754 171.4 256.238 171.4 298.336 213.486C311.744 226.913 321.411 243.632 326.276 261.835C326.846 263.967 329.04 265.185 331.172 264.662C333.304 264.092 334.568 261.902 333.999 259.766Z" fill="#00838C"/>
<path d="M287.011 383.116C285.449 381.554 282.919 381.554 281.357 383.116L213.509 450.96C193.119 471.35 166.015 482.579 137.181 482.579C108.346 482.579 81.242 471.35 60.852 450.96C40.459 430.571 29.23 403.467 29.226 374.628C29.226 345.798 40.455 318.685 60.844 298.296L128.697 230.456C130.259 228.894 130.259 226.364 128.697 224.802C127.135 223.24 124.605 223.24 123.043 224.802L55.191 292.643C33.291 314.546 21.23 343.658 21.23 374.628C21.234 405.598 33.299 434.718 55.199 456.614C77.095 478.518 106.21 490.575 137.181 490.575C168.151 490.575 197.266 478.518 219.162 456.614L287.011 388.77C288.573 387.208 288.573 384.678 287.011 383.116Z" fill="#00838C"/>
<path d="M300.192 259.188C295.968 248.388 289.627 238.721 281.365 230.455C265.506 214.599 244.421 205.869 221.994 205.865H221.99C199.563 205.865 178.479 214.599 162.627 230.455L94.774 298.295C62.036 331.03 62.036 384.303 94.774 417.037C111.142 433.405 132.64 441.589 154.142 441.589C175.644 441.589 197.141 433.406 213.509 417.037L275.711 354.84C277.273 353.278 277.273 350.748 275.711 349.186C274.15 347.624 271.62 347.624 270.058 349.186L207.855 411.384C193.51 425.729 174.433 433.632 154.142 433.632C133.85 433.632 114.773 425.729 100.428 411.384C86.082 397.039 78.18 377.962 78.18 357.666C78.184 337.371 86.082 318.294 100.428 303.949L168.28 236.108C182.625 221.759 201.698 213.861 221.994 213.861C242.285 213.861 261.363 221.763 275.712 236.108C283.192 243.59 288.924 252.336 292.743 262.101C293.539 264.155 295.866 265.163 297.92 264.366C299.981 263.565 300.997 261.247 300.192 259.188Z" fill="#00838C"/>
<path d="M270.158 253.796C268.37 251.598 266.449 249.466 264.403 247.416C231.66 214.685 178.395 214.677 145.665 247.416C144.103 248.977 144.103 251.507 145.665 253.069C147.226 254.631 149.756 254.631 151.318 253.069C180.93 223.458 229.126 223.458 258.746 253.069C260.601 254.924 262.334 256.853 263.958 258.841C264.747 259.813 265.895 260.317 267.059 260.317C267.949 260.317 268.839 260.024 269.581 259.419C271.291 258.029 271.549 255.51 270.158 253.796Z" fill="#00838C"/>
<path d="M424.604 327.898C423.362 326.079 420.879 325.61 419.044 326.86C418.778 327.04 391.235 345.398 349.403 328.156C347.357 327.328 345.022 328.289 344.179 330.335C343.343 332.381 344.311 334.716 346.358 335.56C360.891 341.533 373.838 343.595 384.794 343.595C408.376 343.595 422.706 334.045 423.566 333.451C425.384 332.209 425.853 329.718 424.604 327.898Z" fill="#00838C"/>
<path d="M463.57 315.319C461.142 307.722 449.873 303.872 430.085 303.872C417.841 303.872 403.379 305.55 396.429 307.776C381.874 312.462 373.846 328.11 378.523 342.65C382.225 354.169 392.822 361.907 404.91 361.907C407.784 361.907 410.642 361.454 413.405 360.564C422.948 357.495 469.106 332.514 463.57 315.319ZM410.953 352.957C400.708 356.245 389.394 350.35 386.137 340.205C382.81 329.859 388.526 318.723 398.873 315.389C404.276 313.656 417.427 311.868 430.085 311.868C446.563 311.868 455.051 314.92 455.956 317.763C458.424 325.424 426.149 348.061 410.953 352.957Z" fill="#00838C"/>
<path d="M268.322 473.779C263.632 465.901 255.171 460.028 245.692 458.091C235.985 456.123 226.006 458.403 217.576 464.572C215.792 465.869 215.405 468.375 216.705 470.156C218.01 471.936 220.508 472.334 222.293 471.022C230.742 464.853 238.816 464.861 244.087 465.923C251.4 467.422 257.889 471.889 261.447 477.87C266.394 486.187 263.648 496.979 255.332 501.922C252.299 503.726 248.738 504.233 245.31 503.374C241.881 502.499 239.001 500.353 237.193 497.307C234.436 492.668 235.966 486.648 240.601 483.891C242.214 482.924 244.107 482.642 245.943 483.119C247.763 483.587 249.293 484.728 250.246 486.336C251.374 488.225 253.827 488.858 255.724 487.733C257.625 486.609 258.25 484.156 257.126 482.259C255.079 478.808 251.808 476.363 247.919 475.371C244.022 474.372 239.973 474.956 236.514 477.018C228.093 482.032 225.312 492.964 230.322 501.398C233.219 506.271 237.845 509.723 243.343 511.12C245.089 511.565 246.853 511.784 248.61 511.784C252.382 511.784 256.099 510.768 259.42 508.795C271.524 501.602 275.514 485.89 268.322 473.779Z" fill="#00838C"/>
<path d="M298.937 41.763C297.781 39.869 295.314 39.279 293.439 40.431C285.107 45.522 277.587 44.901 272.769 43.48C266.092 41.52 260.408 36.866 257.569 31.025C253.63 22.958 256.996 13.185 265.07 9.24598C268.013 7.82498 271.332 7.61798 274.424 8.68398C277.517 9.74998 280 11.956 281.429 14.896C283.592 19.347 281.733 24.735 277.29 26.902C274.104 28.469 270.277 27.125 268.731 23.955C267.754 21.972 265.373 21.148 263.377 22.12C261.395 23.088 260.574 25.482 261.543 27.469C265.029 34.591 273.666 37.558 280.787 34.095C289.197 29.996 292.712 19.817 288.62 11.399C286.261 6.53798 282.138 2.89098 277.023 1.12598C271.908 -0.655024 266.418 -0.307024 261.561 2.05898C249.524 7.93898 244.506 22.507 250.378 34.525C254.182 42.353 261.706 48.569 270.518 51.154C273.502 52.032 276.562 52.466 279.616 52.466C285.777 52.466 291.953 50.705 297.601 47.257C299.492 46.108 300.084 43.649 298.937 41.763Z" fill="#00838C"/>
<path d="M98.468 220.589C96.925 207.345 76.032 153.475 53.41 156.095C30.725 158.749 22.709 215.419 24.294 229.186C26.063 244.383 41.286 255.846 59.704 255.846C61.422 255.846 63.171 255.744 64.936 255.542C85.368 253.168 100.412 237.492 98.468 220.589ZM64.018 247.6C47.822 249.482 33.669 240.529 32.236 228.265C30.487 213.041 40.369 165.672 55.046 163.997C69.188 163.997 88.8 206.708 90.525 221.51C91.962 234.028 80.069 245.734 64.018 247.6Z" fill="#00838C"/>
<path d="M63.389 203.203C62.999 201.032 60.929 199.568 58.739 199.989C56.564 200.383 55.128 202.468 55.526 204.639C55.605 205.072 63.386 248.376 56.21 274.853C55.632 276.985 56.889 279.179 59.021 279.757C59.373 279.851 59.724 279.898 60.072 279.898C61.832 279.898 63.445 278.726 63.924 276.947C71.573 248.741 63.729 205.05 63.389 203.203Z" fill="#00838C"/>
</g>
<defs>
<clipPath id="clip0">
<rect width="511.784" height="511.784" fill="white"/>
</clipPath>
</defs>
</svg>
