<svg id="Layer_1" enable-background="new 0 0 256 256" height="512" viewBox="0 0 256 256" width="512" xmlns="http://www.w3.org/2000/svg"><g><g fill="#65c1d6"><path d="m132.356 175.335h-8.713c-2.51 0-4.551-2.041-4.551-4.551v-21.666l-9.395 1.851c-1.807.35-3.569-.361-4.615-1.866-1.032-1.483-1.088-3.438-.143-4.979l19.182-31.257c.834-1.358 2.283-2.17 3.878-2.17s3.044.812 3.878 2.17l19.183 31.257c.945 1.542.889 3.496-.144 4.979-1.046 1.506-2.815 2.219-4.615 1.866l-9.395-1.851v21.666c.001 2.51-2.04 4.551-4.55 4.551zm-8.263-5h7.814v-24.258c0-.748.335-1.456.912-1.931.578-.476 1.336-.667 2.071-.522l11.371 2.24-18.261-29.757-18.261 29.757 11.37-2.24c.734-.144 1.493.047 2.071.522.577.475.912 1.183.912 1.931v24.258z"/><path d="m138.653 109.181c-.64 0-1.279-.244-1.768-.732-.977-.977-.977-2.559 0-3.535l6.729-6.729c.977-.977 2.559-.977 3.535 0s.977 2.559 0 3.535l-6.729 6.729c-.487.488-1.127.732-1.767.732z"/><path d="m117.347 109.181c-.64 0-1.279-.244-1.768-.732l-6.729-6.729c-.977-.977-.977-2.559 0-3.535s2.559-.977 3.535 0l6.729 6.729c.977.977.977 2.559 0 3.535-.488.488-1.128.732-1.767.732z"/><path d="m152.581 119.834h-9.515c-1.381 0-2.5-1.119-2.5-2.5s1.119-2.5 2.5-2.5h9.515c1.381 0 2.5 1.119 2.5 2.5s-1.119 2.5-2.5 2.5z"/><path d="m112.934 119.834h-9.515c-1.381 0-2.5-1.119-2.5-2.5s1.119-2.5 2.5-2.5h9.515c1.381 0 2.5 1.119 2.5 2.5s-1.12 2.5-2.5 2.5z"/><path d="m128 104.768c-1.381 0-2.5-1.119-2.5-2.5v-9.515c0-1.381 1.119-2.5 2.5-2.5s2.5 1.119 2.5 2.5v9.515c0 1.38-1.119 2.5-2.5 2.5z"/><path d="m130.445 71.624.306-.062c1.733-.351 3.176-1.083 4.29-2.175 1.451-1.422 2.187-3.295 2.187-5.566 0-1.425-.284-2.682-.844-3.739-.559-1.053-1.401-1.97-2.5-2.725-1.042-.713-2.614-1.422-4.81-2.168-2.355-.8-3.443-1.518-3.941-1.98-.606-.561-.888-1.323-.888-2.397 0-1.126.32-1.951 1.008-2.598.693-.65 1.722-.979 3.057-.979 1.313 0 2.263.384 2.989 1.209.608.689.974 1.616 1.088 2.755.116 1.165 1.124 2.077 2.294 2.077.645 0 1.267-.274 1.706-.753.433-.474.649-1.113.592-1.752-.183-2.066-.837-3.784-1.942-5.107-1.066-1.278-2.489-2.131-4.227-2.537l-.295-.069v-1.579c0-1.187-.966-2.153-2.153-2.153s-2.153.966-2.153 2.153v1.565l-.301.065c-1.666.359-3.06 1.099-4.142 2.197-1.412 1.431-2.127 3.299-2.127 5.551 0 2.145.654 3.932 1.944 5.314 1.234 1.323 3.223 2.401 6.084 3.298 2.454.85 3.551 1.598 4.042 2.078.603.59.895 1.346.895 2.31 0 1.06-.373 1.892-1.141 2.543-.816.693-1.918 1.045-3.277 1.045-1.573 0-2.788-.407-3.614-1.209-.686-.668-1.062-1.498-1.186-2.613-.127-1.155-1.136-2.06-2.298-2.06-.657 0-1.284.28-1.722.767-.437.484-.649 1.132-.58 1.777.217 2.057.967 3.76 2.229 5.063 1.218 1.257 2.841 2.076 4.826 2.434l.314.057v1.15c0 1.182.962 2.144 2.145 2.144s2.145-.962 2.145-2.144z"/><path d="m70.139 111.57.306-.062c1.733-.351 3.176-1.083 4.29-2.175 1.451-1.422 2.187-3.295 2.187-5.566 0-1.425-.284-2.682-.844-3.739-.559-1.053-1.401-1.97-2.5-2.725-1.042-.713-2.614-1.422-4.81-2.168-2.355-.8-3.443-1.518-3.941-1.98-.606-.561-.888-1.323-.888-2.397 0-1.126.32-1.951 1.008-2.598.693-.65 1.722-.979 3.057-.979 1.313 0 2.263.384 2.989 1.209.608.689.974 1.616 1.088 2.755.116 1.165 1.124 2.077 2.294 2.077.645 0 1.267-.274 1.706-.753.433-.474.649-1.113.592-1.752-.183-2.066-.837-3.784-1.942-5.107-1.066-1.278-2.489-2.131-4.227-2.537l-.295-.069v-1.579c0-1.187-.966-2.153-2.153-2.153s-2.153.966-2.153 2.153v1.565l-.301.065c-1.666.359-3.06 1.099-4.142 2.197-1.412 1.432-2.127 3.299-2.127 5.551 0 2.145.654 3.932 1.944 5.314 1.234 1.323 3.223 2.401 6.084 3.298 2.454.85 3.551 1.598 4.042 2.078.603.59.895 1.346.895 2.31 0 1.06-.373 1.892-1.141 2.543-.816.693-1.918 1.045-3.277 1.045-1.573 0-2.788-.407-3.614-1.209-.686-.668-1.062-1.498-1.186-2.613-.127-1.155-1.136-2.06-2.298-2.06-.657 0-1.284.28-1.722.767-.437.484-.649 1.132-.58 1.777.217 2.057.967 3.76 2.229 5.063 1.218 1.257 2.841 2.076 4.826 2.434l.314.057v1.15c0 1.182.962 2.144 2.145 2.144s2.145-.962 2.145-2.144z"/><path d="m190.75 111.57.306-.062c1.733-.351 3.176-1.083 4.29-2.175 1.451-1.422 2.187-3.295 2.187-5.566 0-1.425-.284-2.682-.844-3.739-.559-1.053-1.401-1.97-2.5-2.725-1.042-.713-2.614-1.422-4.81-2.168-2.355-.8-3.443-1.518-3.941-1.98-.606-.561-.888-1.323-.888-2.397 0-1.126.32-1.951 1.008-2.598.693-.65 1.722-.979 3.057-.979 1.313 0 2.263.384 2.989 1.209.608.689.974 1.616 1.088 2.755.116 1.165 1.124 2.077 2.294 2.077.645 0 1.267-.274 1.706-.753.433-.474.649-1.113.592-1.752-.183-2.066-.837-3.784-1.942-5.107-1.066-1.278-2.489-2.131-4.227-2.537l-.295-.069v-1.579c0-1.187-.966-2.153-2.153-2.153s-2.153.966-2.153 2.153v1.565l-.301.065c-1.666.359-3.06 1.099-4.142 2.197-1.412 1.432-2.127 3.299-2.127 5.551 0 2.145.654 3.932 1.944 5.314 1.234 1.323 3.223 2.401 6.084 3.298 2.454.85 3.551 1.598 4.042 2.078.603.59.895 1.346.895 2.31 0 1.06-.373 1.892-1.141 2.543-.816.693-1.918 1.045-3.277 1.045-1.573 0-2.788-.407-3.614-1.209-.686-.668-1.062-1.498-1.186-2.613-.127-1.155-1.136-2.06-2.298-2.06-.657 0-1.284.28-1.722.767-.437.484-.649 1.132-.58 1.777.217 2.057.967 3.76 2.229 5.063 1.218 1.257 2.841 2.076 4.826 2.434l.314.057v1.15c0 1.182.962 2.144 2.145 2.144s2.145-.962 2.145-2.144z"/></g><g fill="#00838C"><path d="m220.092 54.958h-57.008c-1.381 0-2.5 1.119-2.5 2.5s1.119 2.5 2.5 2.5h57.008c4.23 0 7.672 3.441 7.672 7.672v106.065c0 4.23-3.441 7.672-7.672 7.672h-184.184c-4.23 0-7.672-3.441-7.672-7.672v-106.065c0-4.23 3.441-7.672 7.672-7.672h57.008c1.381 0 2.5-1.119 2.5-2.5s-1.119-2.5-2.5-2.5h-57.008c-6.987 0-12.672 5.685-12.672 12.672v106.065c0 6.987 5.685 12.672 12.672 12.672h184.184c6.987 0 12.672-5.685 12.672-12.672v-106.065c0-6.987-5.685-12.672-12.672-12.672z"/><path d="m169.327 209.842h-24.59v-15.975c0-1.381-1.119-2.5-2.5-2.5s-2.5 1.119-2.5 2.5v15.975h-23.475v-15.975c0-1.381-1.119-2.5-2.5-2.5s-2.5 1.119-2.5 2.5v15.975h-24.59c-4.489 0-8.142 3.652-8.142 8.142s3.652 8.143 8.142 8.143h82.654c4.489 0 8.142-3.652 8.142-8.143.001-4.49-3.652-8.142-8.141-8.142zm0 11.284h-82.654c-1.732 0-3.142-1.41-3.142-3.143s1.409-3.142 3.142-3.142h82.654c1.732 0 3.142 1.409 3.142 3.142s-1.409 3.143-3.142 3.143z"/><path d="m128 85.043c15.21 0 27.584-12.375 27.584-27.585s-12.374-27.584-27.584-27.584-27.584 12.374-27.584 27.584 12.374 27.585 27.584 27.585zm0-50.169c12.453 0 22.584 10.131 22.584 22.584s-10.131 22.585-22.584 22.585-22.584-10.132-22.584-22.585 10.131-22.584 22.584-22.584z"/><path d="m67.694 69.82c-15.21 0-27.584 12.374-27.584 27.584s12.374 27.584 27.584 27.584 27.584-12.374 27.584-27.584-12.374-27.584-27.584-27.584zm0 50.168c-12.453 0-22.584-10.131-22.584-22.584s10.131-22.584 22.584-22.584 22.584 10.131 22.584 22.584-10.131 22.584-22.584 22.584z"/><path d="m215.89 97.404c0-15.21-12.374-27.584-27.584-27.584s-27.584 12.374-27.584 27.584 12.374 27.584 27.584 27.584 27.584-12.374 27.584-27.584zm-50.168 0c0-12.453 10.131-22.584 22.584-22.584s22.584 10.131 22.584 22.584-10.131 22.584-22.584 22.584-22.584-10.131-22.584-22.584z"/></g></g></svg>