<svg width="496" height="496" viewBox="0 0 496 496" fill="none" xmlns="http://www.w3.org/2000/svg">
<path d="M496 332C495.995 326.697 493.886 321.613 490.136 317.864C486.387 314.114 481.303 312.005 476 312H424V296C424 293.878 423.157 291.843 421.657 290.343C420.157 288.843 418.122 288 416 288H408V248C408 245.878 407.157 243.843 405.657 242.343C404.157 240.843 402.122 240 400 240H256V160H328C340.166 159.995 351.877 155.371 360.765 147.062C369.652 138.753 375.054 127.38 375.877 115.242C376.7 103.103 372.883 91.1046 365.198 81.6723C357.514 72.2399 346.534 66.0772 334.48 64.43C330.886 46.2625 321.097 29.9061 306.783 18.1549C292.469 6.40373 274.52 -0.0132802 256 2.06355e-05C243.23 0.0421125 230.653 3.12093 219.308 8.9823C207.962 14.8437 198.174 23.3195 190.75 33.71C181.958 31.6209 172.823 31.4171 163.946 33.1119C155.07 34.8068 146.653 38.3619 139.249 43.5435C131.845 48.725 125.622 55.4155 120.99 63.1748C116.357 70.9341 113.42 79.5863 112.372 88.5623C111.324 97.5382 112.188 106.634 114.907 115.252C117.627 123.87 122.141 131.815 128.151 138.563C134.162 145.311 141.533 150.71 149.78 154.405C158.027 158.1 166.963 160.007 176 160H240V240H96C93.8783 240 91.8434 240.843 90.3431 242.343C88.8429 243.843 88 245.878 88 248V288H80C77.8783 288 75.8434 288.843 74.3431 290.343C72.8429 291.843 72 293.878 72 296V312H20C14.6973 312.005 9.61329 314.114 5.86371 317.864C2.11413 321.613 0.00529477 326.697 0 332V356C0.00477834 360.333 1.42322 364.546 4.04 368C1.42322 371.454 0.00477834 375.667 0 380V404C0.00477834 408.333 1.42322 412.546 4.04 416C1.42322 419.454 0.00477834 423.667 0 428V452C0.00529477 457.303 2.11413 462.387 5.86371 466.136C9.61329 469.886 14.6973 471.995 20 472H72V488C72 490.122 72.8429 492.157 74.3431 493.657C75.8434 495.157 77.8783 496 80 496H112C114.122 496 116.157 495.157 117.657 493.657C119.157 492.157 120 490.122 120 488V472H172C177.303 471.995 182.387 469.886 186.136 466.136C189.886 462.387 191.995 457.303 192 452V428C191.995 423.667 190.577 419.454 187.96 416C190.577 412.546 191.995 408.333 192 404V380C191.995 375.667 190.577 371.454 187.96 368C190.577 364.546 191.995 360.333 192 356V332C191.995 326.697 189.886 321.613 186.136 317.864C182.387 314.114 177.303 312.005 172 312H120V296C120 293.878 119.157 291.843 117.657 290.343C116.157 288.843 114.122 288 112 288H104V256H392V288H384C381.878 288 379.843 288.843 378.343 290.343C376.843 291.843 376 293.878 376 296V312H324C318.697 312.005 313.613 314.114 309.864 317.864C306.114 321.613 304.005 326.697 304 332V356C304.005 360.333 305.423 364.546 308.04 368C305.423 371.454 304.005 375.667 304 380V404C304.005 408.333 305.423 412.546 308.04 416C305.423 419.454 304.005 423.667 304 428V452C304.005 457.303 306.114 462.387 309.864 466.136C313.613 469.886 318.697 471.995 324 472H376V488C376 490.122 376.843 492.157 378.343 493.657C379.843 495.157 381.878 496 384 496H416C418.122 496 420.157 495.157 421.657 493.657C423.157 492.157 424 490.122 424 488V472H476C481.303 471.995 486.387 469.886 490.136 466.136C493.886 462.387 495.995 457.303 496 452V428C495.995 423.667 494.577 419.454 491.96 416C494.577 412.546 495.995 408.333 496 404V380C495.995 375.667 494.577 371.454 491.96 368C494.577 364.546 495.995 360.333 496 356V332ZM88 304H104V312H88V304ZM104 480H88V472H104V480ZM176 452C176 453.061 175.579 454.078 174.828 454.828C174.078 455.579 173.061 456 172 456H20C18.9391 456 17.9217 455.579 17.1716 454.828C16.4214 454.078 16 453.061 16 452V428C16 426.939 16.4214 425.922 17.1716 425.172C17.9217 424.421 18.9391 424 20 424H172C173.061 424 174.078 424.421 174.828 425.172C175.579 425.922 176 426.939 176 428V452ZM176 404C176 405.061 175.579 406.078 174.828 406.828C174.078 407.579 173.061 408 172 408H20C18.9391 408 17.9217 407.579 17.1716 406.828C16.4214 406.078 16 405.061 16 404V380C16 378.939 16.4214 377.922 17.1716 377.172C17.9217 376.421 18.9391 376 20 376H172C173.061 376 174.078 376.421 174.828 377.172C175.579 377.922 176 378.939 176 380V404ZM172 328C173.061 328 174.078 328.421 174.828 329.172C175.579 329.922 176 330.939 176 332V356C176 357.061 175.579 358.078 174.828 358.828C174.078 359.579 173.061 360 172 360H20C18.9391 360 17.9217 359.579 17.1716 358.828C16.4214 358.078 16 357.061 16 356V332C16 330.939 16.4214 329.922 17.1716 329.172C17.9217 328.421 18.9391 328 20 328H172ZM176 144C169.029 143.996 162.143 142.474 155.82 139.54C149.497 136.605 143.889 132.329 139.386 127.008C134.883 121.686 131.593 115.448 129.745 108.727C127.896 102.006 127.534 94.9629 128.683 88.0875C129.832 81.2121 132.465 74.6695 136.399 68.9146C140.332 63.1597 145.472 58.3305 151.46 54.7629C157.449 51.1953 164.143 48.9749 171.076 48.256C178.01 47.5371 185.017 48.337 191.61 50.6C193.345 51.1923 195.23 51.172 196.952 50.5423C198.673 49.9127 200.127 48.7118 201.07 47.14C207.941 35.6368 218.249 26.5805 230.542 21.248C242.834 15.9156 256.49 14.576 269.584 17.4182C282.678 20.2603 294.55 27.1409 303.525 37.0896C312.5 47.0384 318.126 59.5534 319.61 72.87C319.823 74.8295 320.752 76.6412 322.22 77.9572C323.687 79.2732 325.589 80.0007 327.56 80H328C336.487 80 344.626 83.3714 350.627 89.3726C356.629 95.3738 360 103.513 360 112C360 120.487 356.629 128.626 350.627 134.627C344.626 140.629 336.487 144 328 144H176ZM392 304H408V312H392V304ZM408 480H392V472H408V480ZM480 452C480 453.061 479.579 454.078 478.828 454.828C478.078 455.579 477.061 456 476 456H324C322.939 456 321.922 455.579 321.172 454.828C320.421 454.078 320 453.061 320 452V428C320 426.939 320.421 425.922 321.172 425.172C321.922 424.421 322.939 424 324 424H476C477.061 424 478.078 424.421 478.828 425.172C479.579 425.922 480 426.939 480 428V452ZM480 404C480 405.061 479.579 406.078 478.828 406.828C478.078 407.579 477.061 408 476 408H324C322.939 408 321.922 407.579 321.172 406.828C320.421 406.078 320 405.061 320 404V380C320 378.939 320.421 377.922 321.172 377.172C321.922 376.421 322.939 376 324 376H476C477.061 376 478.078 376.421 478.828 377.172C479.579 377.922 480 378.939 480 380V404ZM480 356C480 357.061 479.579 358.078 478.828 358.828C478.078 359.579 477.061 360 476 360H324C322.939 360 321.922 359.579 321.172 358.828C320.421 358.078 320 357.061 320 356V332C320 330.939 320.421 329.922 321.172 329.172C321.922 328.421 322.939 328 324 328H476C477.061 328 478.078 328.421 478.828 329.172C479.579 329.922 480 330.939 480 332V356Z" fill="#00838C"/>
<path d="M336 352C340.418 352 344 348.418 344 344C344 339.582 340.418 336 336 336C331.582 336 328 339.582 328 344C328 348.418 331.582 352 336 352Z" fill="#00838C"/>
<path d="M360 352C364.418 352 368 348.418 368 344C368 339.582 364.418 336 360 336C355.582 336 352 339.582 352 344C352 348.418 355.582 352 360 352Z" fill="#00838C"/>
<path d="M424 352H464C466.122 352 468.157 351.157 469.657 349.657C471.157 348.157 472 346.122 472 344C472 341.878 471.157 339.843 469.657 338.343C468.157 336.843 466.122 336 464 336H424C421.878 336 419.843 336.843 418.343 338.343C416.843 339.843 416 341.878 416 344C416 346.122 416.843 348.157 418.343 349.657C419.843 351.157 421.878 352 424 352Z" fill="#00838C"/>
<path d="M336 400C340.418 400 344 396.418 344 392C344 387.582 340.418 384 336 384C331.582 384 328 387.582 328 392C328 396.418 331.582 400 336 400Z" fill="#00838C"/>
<path d="M360 400C364.418 400 368 396.418 368 392C368 387.582 364.418 384 360 384C355.582 384 352 387.582 352 392C352 396.418 355.582 400 360 400Z" fill="#00838C"/>
<path d="M424 400H464C466.122 400 468.157 399.157 469.657 397.657C471.157 396.157 472 394.122 472 392C472 389.878 471.157 387.843 469.657 386.343C468.157 384.843 466.122 384 464 384H424C421.878 384 419.843 384.843 418.343 386.343C416.843 387.843 416 389.878 416 392C416 394.122 416.843 396.157 418.343 397.657C419.843 399.157 421.878 400 424 400Z" fill="#00838C"/>
<path d="M336 448C340.418 448 344 444.418 344 440C344 435.582 340.418 432 336 432C331.582 432 328 435.582 328 440C328 444.418 331.582 448 336 448Z" fill="#00838C"/>
<path d="M360 448C364.418 448 368 444.418 368 440C368 435.582 364.418 432 360 432C355.582 432 352 435.582 352 440C352 444.418 355.582 448 360 448Z" fill="#00838C"/>
<path d="M464 432H424C421.878 432 419.843 432.843 418.343 434.343C416.843 435.843 416 437.878 416 440C416 442.122 416.843 444.157 418.343 445.657C419.843 447.157 421.878 448 424 448H464C466.122 448 468.157 447.157 469.657 445.657C471.157 444.157 472 442.122 472 440C472 437.878 471.157 435.843 469.657 434.343C468.157 432.843 466.122 432 464 432Z" fill="#00838C"/>
<path d="M32 352C36.4183 352 40 348.418 40 344C40 339.582 36.4183 336 32 336C27.5817 336 24 339.582 24 344C24 348.418 27.5817 352 32 352Z" fill="#00838C"/>
<path d="M56 352C60.4183 352 64 348.418 64 344C64 339.582 60.4183 336 56 336C51.5817 336 48 339.582 48 344C48 348.418 51.5817 352 56 352Z" fill="#00838C"/>
<path d="M120 352H160C162.122 352 164.157 351.157 165.657 349.657C167.157 348.157 168 346.122 168 344C168 341.878 167.157 339.843 165.657 338.343C164.157 336.843 162.122 336 160 336H120C117.878 336 115.843 336.843 114.343 338.343C112.843 339.843 112 341.878 112 344C112 346.122 112.843 348.157 114.343 349.657C115.843 351.157 117.878 352 120 352V352Z" fill="#00838C"/>
<path d="M32 400C36.4183 400 40 396.418 40 392C40 387.582 36.4183 384 32 384C27.5817 384 24 387.582 24 392C24 396.418 27.5817 400 32 400Z" fill="#00838C"/>
<path d="M56 400C60.4183 400 64 396.418 64 392C64 387.582 60.4183 384 56 384C51.5817 384 48 387.582 48 392C48 396.418 51.5817 400 56 400Z" fill="#00838C"/>
<path d="M120 400H160C162.122 400 164.157 399.157 165.657 397.657C167.157 396.157 168 394.122 168 392C168 389.878 167.157 387.843 165.657 386.343C164.157 384.843 162.122 384 160 384H120C117.878 384 115.843 384.843 114.343 386.343C112.843 387.843 112 389.878 112 392C112 394.122 112.843 396.157 114.343 397.657C115.843 399.157 117.878 400 120 400V400Z" fill="#00838C"/>
<path d="M32 448C36.4183 448 40 444.418 40 440C40 435.582 36.4183 432 32 432C27.5817 432 24 435.582 24 440C24 444.418 27.5817 448 32 448Z" fill="#00838C"/>
<path d="M56 448C60.4183 448 64 444.418 64 440C64 435.582 60.4183 432 56 432C51.5817 432 48 435.582 48 440C48 444.418 51.5817 448 56 448Z" fill="#00838C"/>
<path d="M160 432H120C117.878 432 115.843 432.843 114.343 434.343C112.843 435.843 112 437.878 112 440C112 442.122 112.843 444.157 114.343 445.657C115.843 447.157 117.878 448 120 448H160C162.122 448 164.157 447.157 165.657 445.657C167.157 444.157 168 442.122 168 440C168 437.878 167.157 435.843 165.657 434.343C164.157 432.843 162.122 432 160 432Z" fill="#00838C"/>
</svg>
