<svg width="492" height="492" viewBox="0 0 492 492" fill="none" xmlns="http://www.w3.org/2000/svg">
<g clip-path="url(#clip0)">
<path d="M31.4019 341.811H135.196V325.843H31.4019C26.9887 325.843 23.4177 322.268 23.4177 317.858V70.3489H326.816V134.222H342.785V30.428C342.785 17.2003 332.06 6.47546 318.832 6.47546H31.4019C18.1703 6.47546 7.44933 17.2003 7.44933 30.428V317.858C7.44933 331.086 18.1703 341.811 31.4019 341.811ZM31.4019 22.4438H318.832C323.241 22.4438 326.816 26.0188 326.816 30.428V54.3805H23.4177V30.428C23.4177 26.0188 26.9887 22.4438 31.4019 22.4438Z" fill="#00838C"/>
<path d="M39.386 30.428H55.3544V46.3963H39.386V30.428Z" fill="#00838C"/>
<path d="M71.3228 30.428H87.2911V46.3963H71.3228V30.428Z" fill="#00838C"/>
<path d="M103.259 30.428H119.228V46.3963H103.259V30.428Z" fill="#00838C"/>
<path d="M151.165 110.27H167.133V126.238H151.165V110.27Z" fill="#00838C"/>
<path d="M183.101 110.27H199.07V126.238H183.101V110.27Z" fill="#00838C"/>
<path d="M215.038 110.27H231.006V126.238H215.038V110.27Z" fill="#00838C"/>
<path d="M119.228 110.27H135.196V126.238H119.228V110.27Z" fill="#00838C"/>
<path d="M462.547 150.191H175.117C161.885 150.191 151.165 160.916 151.165 174.143V461.574C151.165 474.801 161.885 485.526 175.117 485.526H462.547C475.775 485.526 486.5 474.801 486.5 461.574V174.143C486.5 160.916 475.775 150.191 462.547 150.191V150.191ZM175.117 166.159H462.547C466.957 166.159 470.532 169.734 470.532 174.143V198.096H167.133V174.143C167.133 169.734 170.704 166.159 175.117 166.159ZM462.547 469.558H175.117C170.704 469.558 167.133 465.983 167.133 461.574V214.064H470.532V461.574C470.532 465.983 466.957 469.558 462.547 469.558Z" fill="#00838C"/>
<path d="M183.101 174.143H199.07V190.112H183.101V174.143Z" fill="#00838C"/>
<path d="M215.038 174.143H231.006V190.112H215.038V174.143Z" fill="#00838C"/>
<path d="M246.975 174.143H262.943V190.112H246.975V174.143Z" fill="#00838C"/>
<path d="M318.832 293.906C292.373 293.906 270.927 315.355 270.927 341.811C270.927 368.27 292.373 389.716 318.832 389.716C345.288 389.716 366.737 368.27 366.737 341.811C366.71 315.363 345.276 293.933 318.832 293.906ZM318.832 373.748C301.191 373.748 286.896 359.448 286.896 341.811C286.896 324.174 301.191 309.874 318.832 309.874C336.469 309.874 350.769 324.174 350.769 341.811C350.769 359.448 336.469 373.748 318.832 373.748Z" fill="#00838C"/>
<path d="M408.253 318.018L394.089 315.184C393.161 312.545 392.097 309.956 390.896 307.43L398.881 295.454C400.99 292.288 400.573 288.07 397.883 285.38L375.287 262.768C372.597 260.074 368.379 259.657 365.209 261.77L353.233 269.754C350.707 268.554 348.122 267.489 345.483 266.562L342.625 252.387C341.865 248.671 338.594 246.001 334.801 246.001H302.864C299.067 246.001 295.796 248.671 295.036 252.387L292.201 266.554C289.566 267.482 286.977 268.546 284.451 269.747L272.475 261.762C269.305 259.649 265.091 260.067 262.397 262.76L239.786 285.356C237.096 288.046 236.679 292.265 238.788 295.43L246.772 307.406C245.575 309.933 244.507 312.521 243.579 315.161L229.408 318.018C225.689 318.778 223.018 322.049 223.022 325.842V357.779C223.018 361.572 225.689 364.843 229.408 365.604L243.571 368.438C244.499 371.077 245.567 373.666 246.764 376.192L238.78 388.168C236.671 391.334 237.088 395.552 239.778 398.242L262.374 420.853C265.064 423.547 269.282 423.964 272.451 421.851L284.428 413.867C286.954 415.068 289.543 416.132 292.178 417.06L295.036 431.235C295.796 434.95 299.067 437.621 302.864 437.621H334.801C338.594 437.621 341.865 434.95 342.625 431.235L345.459 417.072C348.095 416.144 350.683 415.076 353.209 413.875L365.186 421.859C368.355 423.972 372.569 423.555 375.263 420.861L397.875 398.265C400.565 395.575 400.982 391.357 398.873 388.192L390.889 376.215C392.085 373.689 393.154 371.1 394.082 368.461L408.253 365.604C411.972 364.843 414.642 361.572 414.642 357.779V325.842C414.642 322.049 411.972 318.778 408.253 318.018V318.018ZM398.674 351.234L386.312 353.709C383.384 354.294 381.025 356.469 380.203 359.343C378.862 364.036 376.986 368.563 374.616 372.831C373.158 375.443 373.287 378.652 374.944 381.143L381.922 391.599L368.589 404.936L358.129 397.957C355.638 396.297 352.43 396.172 349.818 397.63C345.549 400 341.027 401.875 336.333 403.216C333.459 404.039 331.284 406.394 330.695 409.325L328.251 421.653H309.409L306.934 409.294C306.345 406.363 304.17 404.004 301.297 403.185C296.603 401.844 292.077 399.969 287.812 397.595C285.2 396.141 281.991 396.265 279.5 397.922L269.04 404.901L255.707 391.568L262.686 381.108C264.343 378.621 264.471 375.412 263.013 372.796C260.639 368.531 258.764 364.005 257.423 359.311C256.604 356.438 254.245 354.263 251.318 353.674L238.99 351.234V332.388L251.349 329.916C254.28 329.328 256.635 327.152 257.458 324.279C258.799 319.585 260.674 315.059 263.044 310.794C264.502 308.178 264.374 304.97 262.717 302.483L255.739 292.023L269.071 278.69L279.531 285.668C282.022 287.325 285.231 287.45 287.843 285.996C292.112 283.621 296.634 281.746 301.328 280.405C304.205 279.583 306.376 277.228 306.965 274.296L309.409 261.969H328.251L330.727 274.327C331.315 277.259 333.491 279.618 336.364 280.436C341.058 281.777 345.584 283.653 349.849 286.027C352.461 287.481 355.669 287.356 358.161 285.699L368.62 278.721L381.953 292.054L374.975 302.514C373.318 305.005 373.189 308.213 374.647 310.825C377.022 315.09 378.897 319.617 380.238 324.31C381.057 327.184 383.415 329.359 386.343 329.948L398.674 332.388V351.234Z" fill="#00838C"/>
<path d="M42.1384 354.052L28.014 361.506C51.2726 405.638 87.3379 441.699 131.465 464.957L138.923 450.845C97.6339 429.083 63.8922 395.342 42.1384 354.052Z" fill="#00838C"/>
<path d="M451.807 137.949L465.931 130.495C442.673 86.364 406.607 50.3027 362.48 27.0441L355.022 41.1606C396.311 62.9183 430.053 96.66 451.807 137.949Z" fill="#00838C"/>
<path d="M0.973885 378.808L14.8019 370.828L22.7861 384.656L8.95416 392.64L0.973885 378.808Z" fill="#00838C"/>
<path d="M27.7801 419.508L40.0137 409.244L50.2746 421.481L38.0411 431.742L27.7801 419.508Z" fill="#00838C"/>
<path d="M61.2334 454.938L71.4943 442.705L83.7278 452.966L73.4669 465.199L61.2334 454.938Z" fill="#00838C"/>
<path d="M100.339 484.017L108.324 470.189L122.152 478.169L114.168 492.001L100.339 484.017Z" fill="#00838C"/>
<path d="M471.155 107.342L484.987 99.3578L492.968 113.186L479.14 121.17L471.155 107.342Z" fill="#00838C"/>
<path d="M443.675 70.5243L455.908 60.2634L466.173 72.497L453.936 82.7579L443.675 70.5243Z" fill="#00838C"/>
<path d="M410.221 39.032L420.482 26.7985L432.716 37.0594L422.455 49.2968L410.221 39.032Z" fill="#00838C"/>
<path d="M371.798 13.8281L379.782 0L393.61 7.98418L385.63 21.8122L371.798 13.8281Z" fill="#00838C"/>
<path d="M55.3544 158.175H119.228V174.143H55.3544V158.175Z" fill="#00838C"/>
<path d="M55.3544 190.112H119.228V206.08H55.3544V190.112Z" fill="#00838C"/>
<path d="M55.3544 222.048H119.228V238.017H55.3544V222.048Z" fill="#00838C"/>
<path d="M55.3544 253.985H119.228V269.953H55.3544V253.985Z" fill="#00838C"/>
<path d="M55.3544 285.922H119.228V301.89H55.3544V285.922Z" fill="#00838C"/>
</g>
<defs>
<clipPath id="clip0">
<rect width="492" height="492" fill="white"/>
</clipPath>
</defs>
</svg>
