<svg width="94" height="94" viewBox="0 0 94 94" fill="none" xmlns="http://www.w3.org/2000/svg">
<path d="M47.611 50.029L37.214 80.236C40.318 81.15 43.6 81.65 47.002 81.65C51.035 81.65 54.906 80.953 58.508 79.685C58.414 79.536 58.329 79.377 58.262 79.206L47.611 50.029Z" fill="#00838C"/>
<path d="M70.393 45.251C70.393 40.967 68.856 38.002 67.538 35.693C65.78 32.839 64.134 30.422 64.134 27.567C64.134 24.382 66.549 21.417 69.953 21.417C70.104 21.417 70.252 21.438 70.401 21.445C64.235 15.799 56.024 12.35 47.004 12.35C34.897 12.35 24.248 18.561 18.053 27.967C18.866 27.992 19.632 28.008 20.283 28.008C23.907 28.008 29.516 27.57 29.516 27.57C31.384 27.459 31.605 30.203 29.74 30.424C29.74 30.424 27.862 30.645 25.773 30.754L38.39 68.285L45.974 45.545L40.576 30.753C38.71 30.643 36.943 30.423 36.943 30.423C35.075 30.313 35.295 27.459 37.16 27.568C37.16 27.568 42.882 28.008 46.287 28.008C49.91 28.008 55.522 27.568 55.522 27.568C57.391 27.46 57.61 30.203 55.744 30.423C55.744 30.423 53.862 30.643 51.778 30.753L64.298 68L67.756 56.451C69.252 51.658 70.393 48.217 70.393 45.251Z" fill="#00838C"/>
<path d="M12.351 46.999C12.351 60.712 20.323 72.564 31.88 78.182L15.352 32.896C13.429 37.206 12.351 41.975 12.351 46.999Z" fill="#00838C"/>
<path d="M64.42 76.949C74.723 70.941 81.65 59.783 81.65 47C81.65 40.975 80.111 35.311 77.404 30.374C77.554 31.479 77.638 32.663 77.638 33.937C77.638 37.453 76.982 41.405 75.003 46.348L64.42 76.949Z" fill="#00838C"/>
<path d="M89 0H5C2.239 0 0 2.239 0 5V89C0 91.761 2.239 94 5 94H89C91.762 94 94 91.761 94 89V5C94 2.239 91.762 0 89 0ZM47.002 85.539C25.751 85.539 8.462 68.25 8.462 46.999C8.462 25.748 25.75 8.461 47.002 8.461C68.252 8.461 85.537 25.748 85.537 46.999C85.537 68.25 68.252 85.539 47.002 85.539Z" fill="#00838C"/>
</svg>
